<?xml version="1.0" encoding="UTF-8" standalone="no"?>
<!-- Created with Inkscape (http://www.inkscape.org/) -->

<svg
   version="1.1"
   id="svg1"
   width="153"
   height="145.86404"
   viewBox="0 0 153 145.86404"
   xmlns="http://www.w3.org/2000/svg"
   xmlns:svg="http://www.w3.org/2000/svg">
  <defs
     id="defs1" />
  <g
     id="g1">
    <path
       id="path1"
       d="m 0,572.379 v -0.578 L 0.589844,571.211 0,570.621 V 554.18 L 0.589844,524.219 1.17188,523.59 H 0.589844 L 3.51953,491.289 c 4.28906,-30.16 9.99997,-58.168 17.03127,-83.988 12.1484,-41.172 25.2695,-75.422 39.3711,-102.852 11.7578,-24.289 29.957,-53.668 54.6481,-88.121 21.559,-27.418 49.532,-54.648 84.02,-81.68 45.43,-32.109 94.422,-60.1167 146.879,-84.0269 h 0.582 C 337.852,68.2813 329.41,84.3008 320.82,98.8281 296.129,138.398 257.73,196.949 205.621,274.488 141.41,373.98 109.301,462.109 109.301,538.91 v 0.578 l -0.59,0.59 h 0.59 l -0.59,6.442 c 0,107.742 37.418,203.32 112.23,286.761 l 19.411,21.129 c 34.058,31.719 60.699,53.289 79.878,64.61 30.161,18.441 60.122,33.32 89.93,44.691 55.969,18.398 103.789,27.617 143.36,27.617 h 0.582 l 0.589,0.582 v -0.582 l 3.508,0.582 h 27.031 c 88.911,0 173.321,-24.879 253.25,-74.64 15.27,-8.598 38.942,-27.192 71.09,-55.79 86.559,-86.171 129.81,-187.652 129.81,-304.371 l -0.55,-26.449 -0.59,-2.34 0.59,-0.59 -0.59,-0.582 v -5.308 l -1.21,-3.52 1.21,-0.59 -5.9,-37.609 c 0,-12.109 -7.07,-38.211 -21.17,-78.133 -10.15,-25.468 -22.889,-49.957 -38.158,-73.437 -13.321,-22.34 -37.032,-50.352 -71.102,-84.02 -26.64,-23.91 -46.012,-38.793 -58.16,-44.652 C 804.57,179.488 785,158.16 785,135.82 c 0,-5.082 0.781,-11.172 2.34,-18.199 8.988,-25.8593 26.64,-38.7929 52.859,-38.7929 9.801,0 20.781,3.1211 32.922,9.4102 27.82,16.4527 61.879,41.6837 102.231,75.7817 25.038,24.3 45.428,46.019 61.098,65.242 24.29,32.109 43.47,62.066 57.57,89.879 12.93,27.418 24.89,60.308 35.86,98.711 11.76,54.449 17.62,96.168 17.62,125.16 l -0.59,0.578 0.59,0.59 v 37.031 l -0.59,0.59 h 0.59 l -0.59,2.301 c 0,42.738 -9.37,92.66 -28.2,149.847 -16.44,45.821 -39.33,88.711 -68.75,128.672 -12.5,20 -37.97,48.16 -76.37,84.609 -31.711,27.032 -59.531,47.571 -83.43,61.68 -38.398,23.12 -77.148,41.95 -116.332,56.44 -69.726,22.7 -128.906,34.06 -177.457,34.06 l -3.519,0.59 -0.582,-0.59 -4.11,0.59 h -34.68 l -1.179,-0.59 v 0.59 l -14.102,-0.59 c -58.359,-4.68 -105.539,-12.93 -141.597,-24.68 -44.262,-14.89 -80.903,-30.35 -109.883,-46.41 -32.5,-18.01 -66.41,-41.91 -101.641,-71.679 -34.058,-32.5 -58.558,-58.942 -73.437,-79.34 C 83.4414,839.34 60.5117,800.941 42.8906,762.148 14.6914,692.422 0.589844,630.738 0.589844,577.07 L 0,573.551 0.589844,572.969 Z m 558.75,373.09 v 1.172 c -30.551,-1.95 -57.148,-5.469 -79.879,-10.512 -63.09,-13.707 -121.25,-41.719 -174.531,-84.02 -28.211,-25.468 -46.801,-44.058 -55.789,-55.82 -59.172,-75.199 -88.75,-157.848 -88.75,-247.969 0,-41.48 6.488,-81.64 19.418,-120.429 11.722,-34.493 41.871,-88.512 90.472,-162.192 C 280.66,249.691 331.762,169.57 423.051,25.4297 446.129,18.75 491.949,12.3008 560.512,6.01953 h 0.617 l 0.59,0.58203 C 508.051,99.4492 431.449,225 331.949,383.238 c -39.14,57.582 -58.75,112.231 -58.75,163.953 v 1.129 l -0.578,0.59 0.578,0.578 v 12.352 c 0,31.359 7.66,64.84 22.93,100.461 11.762,25.859 28.211,50.359 49.34,73.437 36.832,43.133 88.16,74.063 153.941,92.852 13.711,3.91 32.93,7.031 57.578,9.422 v -0.59 l 3.563,0.59 h 10.539 l 0.59,1.168 0.621,-1.168 h 6.449 l 0.59,1.168 0.582,-1.168 h 1.758 l 0.59,1.168 0.621,-1.168 h 1.718 c 55.231,0 110.661,-17.852 166.289,-53.481 13.711,-7.851 30.551,-21.953 50.512,-42.301 18.82,-20.39 33.121,-39.57 42.93,-57.621 19.961,-40.308 29.961,-74.808 29.961,-103.398 l 0.578,-2.34 h -0.578 l 0.578,-2.93 V 544.18 l -0.578,-2.93 0.578,-1.172 h -0.578 c 0,-10.199 -2.391,-26.84 -7.071,-49.957 C 859.02,461.91 850.391,440 841.371,424.34 c -9.812,-20.391 -26.211,-42.699 -49.34,-67 -14.492,-14.102 -27.23,-23.899 -38.203,-29.371 -34.449,-15.27 -51.719,-35.86 -51.719,-61.719 l 2.969,-17.621 c 9.762,-24.68 27.031,-37.027 51.684,-37.027 h 1.168 c 8.242,0 15.898,1.558 22.929,4.726 11.371,1.172 37.231,19.57 77.582,55.192 87.731,83.441 131.598,178.25 131.598,284.378 v 21.762 l -0.59,0.578 h 0.59 v 0.59 c -3.519,40.742 -9.609,71.871 -18.199,93.442 -10.59,31.32 -25.469,60.89 -44.649,88.71 -10.203,17.219 -32.929,42.891 -68.171,76.95 -28.2,24.691 -53.282,43.09 -75.231,55.23 -23.48,13.32 -53.051,25.668 -88.711,37.039 -41.129,10.192 -74.808,15.66 -101.058,16.442 l -0.579,-1.172 -0.589,1.172 H 559.34 Z m 9.41,-156.289 v 1.172 c -19.18,-1.563 -32.109,-3.122 -38.781,-4.692 -11.719,0 -35.43,-7.461 -71.098,-22.34 -19.961,-9.371 -42.109,-25.23 -66.371,-47.582 -45.07,-47.379 -67.57,-101.828 -67.57,-163.316 0,-44.262 13.121,-86.762 39.371,-127.5 C 393.09,382.23 419.73,340.898 443.59,300.941 513.32,183.051 574.059,86.4805 625.738,11.2891 c 27.032,0 65.633,6.6406 115.742,19.9609 -55.968,94.801 -136.089,224.262 -240.269,388.359 -40.352,57.192 -60.512,100.512 -60.512,129.879 0,34.461 11.531,65 34.653,91.641 28.597,26.641 58.359,39.961 89.296,39.961 h 1.172 l 0.629,0.59 v -0.59 l 4.68,0.59 c 33.672,0 61.883,-8.442 84.609,-25.27 34.461,-30.16 51.684,-64.851 51.684,-104.031 v -2.34 c 0,-12.93 -2.344,-26.059 -7.031,-39.379 -5.86,-18.39 -19.18,-34.64 -39.961,-48.75 -28.981,-20 -43.481,-39.762 -43.481,-59.332 0.43,-5.898 1.602,-11.558 3.52,-17.027 11.761,-25.473 29.609,-38.211 53.48,-38.211 19.211,0 40.539,9.422 64.063,28.211 56.008,52.89 84.019,111.828 84.019,176.828 v 3.562 c 0,34.059 -8.633,68.938 -25.859,104.571 -30.942,57.187 -76.211,96.367 -135.742,117.5 -29.379,8.238 -52.7,12.34 -69.918,12.34 l -0.59,-1.172 -0.582,1.172 h -0.59 l -0.59,-1.172 -1.172,1.172 H 568.75 Z"
       style="fill:#4ec3e0;fill-opacity:1;fill-rule:evenodd;stroke:none"
       transform="matrix(0.13333333,0,0,-0.13333333,0,146.66667)" />
  </g>
</svg>
